<svg width="23" height="20" viewBox="0 0 23 20" fill="none" xmlns="http://www.w3.org/2000/svg">
<path d="M17.2967 19V12.208H10V7.53613H17.2967V0.794922H22.7811V19H17.2967Z" fill="#2DD4BF"/>
<path d="M11 11.4355C11 16.8268 8.5651 19.5224 3.32617 19.5224C2.90299 19.5224 2.39518 19.4716 1.80273 19.3701C1.21029 19.2685 0.609375 19.1162 0 18.913V13.8476C0.431641 14.1438 0.909831 14.385 1.43457 14.5712C1.96777 14.749 2.40788 14.8378 2.75488 14.8378C3.73665 14.8378 4.46875 14.5374 4.95117 13.9365C5.44206 13.3271 6 12.3876 6 11.1181V1.11792H11V11.4355Z" fill="white"/>
<ellipse cx="8.5" cy="1.13401" rx="2.5" ry="1.13401" fill="#042F2E"/>
<path fill-rule="evenodd" clip-rule="evenodd" d="M9.77358 2.11005C10.5078 1.9125 11 1.54933 11 1.13401C11 0.507715 9.88071 0 8.5 0C7.11929 0 6 0.507715 6 1.13401C6 1.15195 6.00092 1.16979 6.00273 1.18752C6.38257 1.77516 7.4634 1.82423 7.93396 1.82423C8.40566 1.82423 9.34906 1.5777 9.77358 0.887436V2.11005Z" fill="url(#paint0_linear_920_2344)"/>
<defs>
<linearGradient id="paint0_linear_920_2344" x1="10.5" y1="2" x2="1.5" y2="6.5" gradientUnits="userSpaceOnUse">
<stop stop-color="#134E4A"/>
<stop offset="1" stop-color="#2CB4AB"/>
</linearGradient>
</defs>
</svg>
